<svg width="455" height="123" viewBox="0 0 455 123" fill="none" xmlns="http://www.w3.org/2000/svg">
<g clip-path="url(#clip0_641_11468)">
<path d="M81.5918 38.8741L75.2334 41.0489C75.0365 41.1162 74.8634 41.2398 74.7354 41.4045C74.6074 41.5692 74.5301 41.7679 74.5128 41.9762C74.4956 42.1845 74.5392 42.3934 74.6384 42.5771C74.7375 42.7609 74.8879 42.9115 75.071 43.0106C78.6493 44.9225 87.0254 48.4004 100.552 48.2676C103.037 48.2436 105.475 47.5729 107.626 46.321C109.777 45.0691 111.57 43.2785 112.828 41.1236C115.721 36.1875 118.834 28.5759 119.134 18.3857C119.139 18.1899 119.091 17.9965 118.995 17.8263C118.898 17.6562 118.757 17.5158 118.587 17.4203C118.417 17.3249 118.224 17.278 118.03 17.2848C117.835 17.2915 117.646 17.3517 117.483 17.4588L112.253 20.8675C112.019 21.0201 111.757 21.1232 111.482 21.1705C111.208 21.2178 110.927 21.2082 110.656 21.1424C110.385 21.0766 110.13 20.956 109.907 20.7879C109.685 20.6198 109.498 20.4077 109.36 20.1647L102.377 7.88273C100.903 5.29419 98.7247 3.18243 96.0978 1.7958C93.471 0.409177 90.5049 -0.194651 87.5484 0.055332L56.9948 2.62573C56.7619 2.64341 56.5412 2.73757 56.3667 2.8937C56.1922 3.04984 56.0736 3.25929 56.0292 3.48981C55.9848 3.72033 56.017 3.95914 56.1208 4.16947C56.2247 4.3798 56.3944 4.54998 56.6039 4.65383C62.1421 7.42067 71.8532 15.0489 82.7534 35.969C82.8906 36.2327 82.9693 36.5232 82.9841 36.8204C82.9989 37.1177 82.9493 37.4146 82.8389 37.6907C82.7285 37.9669 82.5599 38.2157 82.3445 38.42C82.1292 38.6243 81.8724 38.7792 81.5918 38.8741Z" fill="#123524"/>
<path d="M23.0804 27.2451L46.648 42.7201C47.0403 42.9789 47.5168 43.0756 47.9783 42.99C48.4398 42.9045 48.8506 42.6432 49.1253 42.2608L64.3828 21.0363C64.9413 20.261 65.2283 19.3215 65.199 18.3647C65.1696 17.408 64.8254 16.488 64.2204 15.7489C60.8169 11.6436 56.6874 8.20659 52.0403 5.61116C46.3837 2.44589 38.437 4.1724 34.4595 9.31043L22.6235 24.5889C22.4698 24.7897 22.3593 25.0204 22.2988 25.2663C22.2383 25.5123 22.2293 25.7681 22.2723 26.0178C22.3152 26.2674 22.4092 26.5054 22.5483 26.7166C22.6874 26.9279 22.8686 27.1078 23.0804 27.2451Z" fill="#123524"/>
<path d="M8.88793 52.036L1.26054 47.2134C1.01339 47.0594 0.815005 46.8378 0.688604 46.5746C0.562203 46.3114 0.513018 46.0174 0.546808 45.7271C0.580599 45.4368 0.695965 45.1622 0.879402 44.9354C1.06284 44.7086 1.30675 44.5391 1.58259 44.4466C5.6041 43.0631 13.6581 40.703 25.1474 39.2421C28.6259 38.7972 32.1556 39.4596 35.2401 41.1362C38.3246 42.8127 40.8086 45.419 42.3427 48.5885C45.0623 54.2357 47.4378 61.6065 46.5927 69.1655C46.5611 69.431 46.4612 69.6835 46.3027 69.8982C46.1442 70.1128 45.9327 70.2822 45.6892 70.3895C45.4456 70.4968 45.1784 70.5384 44.914 70.5101C44.6495 70.4817 44.3971 70.3845 44.1815 70.228L30.1764 60.1484C30.0845 60.0809 29.972 60.0477 29.8584 60.0544C29.7448 60.0611 29.637 60.1074 29.5537 60.1853C29.4703 60.2633 29.4165 60.3679 29.4016 60.4813C29.3866 60.5947 29.4114 60.7099 29.4717 60.8069C31.3985 63.9832 33.2207 69.7826 29.2212 78.2076C23.2646 90.7497 17.8366 96.9474 21.1066 107.589C21.1401 107.713 21.1316 107.844 21.0825 107.962C21.0335 108.081 20.9466 108.18 20.8356 108.243C20.7246 108.306 20.5958 108.331 20.4695 108.313C20.3431 108.294 20.2264 108.234 20.1377 108.142C14.2499 101.742 -3.08578 81.7519 0.478805 71.8964C3.56995 63.3524 8.49706 59.3737 10.1128 56.261C10.4669 55.5296 10.5376 54.6919 10.3112 53.911C10.0848 53.13 9.57748 52.4617 8.88793 52.036Z" fill="#123524"/>
<path d="M32.9373 89.6706C32.6358 89.3989 32.2779 89.1982 31.8896 89.083C31.5013 88.9678 31.0923 88.941 30.6924 89.0046C30.2925 89.0682 29.9117 89.2206 29.5777 89.4507C29.2437 89.6807 28.9649 89.9827 28.7616 90.3347C24.3575 97.9573 15.6924 118.003 45.8854 118.631L53.1963 118.54C61.6425 118.391 70.0644 119.496 78.1896 121.819C87.2731 124.464 103.001 124.516 117.75 102.431C117.75 102.431 129.795 85.2243 122.85 49.7976C122.761 49.3475 122.56 48.9275 122.265 48.5771C121.97 48.2268 121.591 47.9576 121.164 47.7949C120.737 47.6322 120.276 47.5813 119.824 47.6471C119.372 47.7128 118.944 47.893 118.581 48.1707C114.111 51.6182 105.063 57.08 91.2396 58.5713C86.6458 59.0334 82.125 60.0555 77.7768 61.6148C69.6456 64.6058 58.6491 70.4687 53.5541 81.2373C50.3611 87.9994 55.1781 95.8794 62.6211 96.1146C65.4047 96.1863 68.1899 96.0606 70.9559 95.7383C70.9559 95.7383 87.3475 95.0245 105.68 76.5752C105.761 76.4985 105.867 76.4526 105.978 76.4452C106.09 76.4377 106.2 76.4692 106.291 76.5343C106.382 76.5994 106.448 76.6941 106.477 76.8024C106.507 76.9107 106.498 77.0259 106.453 77.1285C102.514 84.8231 88.2145 106.559 54.4927 100.94C54.1101 100.876 53.722 100.813 53.3366 100.755C51.5447 100.481 42.9291 98.7293 32.9373 89.6706Z" fill="#123524"/>
</g>
<path d="M184.436 90V45.84H168.116V34H213.556V45.84H197.236V90H184.436ZM241.992 90L241.272 82.64V50H253.752V90H241.992ZM215.512 70.48V50H227.992V70.48H215.512ZM227.992 70.48C227.992 72.56 228.232 74.24 228.712 75.52C229.192 76.8 229.886 77.7333 230.792 78.32C231.699 78.9067 232.766 79.2267 233.992 79.28C236.392 79.28 238.206 78.6133 239.432 77.28C240.659 75.8933 241.272 73.84 241.272 71.12H245.032C245.032 75.3333 244.392 78.9333 243.112 81.92C241.832 84.8533 240.072 87.0933 237.832 88.64C235.646 90.1867 233.086 90.96 230.152 90.96C226.952 90.96 224.259 90.32 222.072 89.04C219.886 87.7067 218.232 85.7067 217.112 83.04C216.046 80.3733 215.512 76.96 215.512 72.8V70.48H227.992ZM273.772 81.12L266.412 72.48L286.492 50H301.132L273.772 81.12ZM261.932 90V34H274.412V90H261.932ZM287.692 90L275.292 72.32L283.452 63.76L302.172 90H287.692ZM327.957 90L327.557 81.36V70.08C327.557 67.9467 327.371 66.08 326.997 64.48C326.677 62.88 326.011 61.6533 324.997 60.8C324.037 59.8933 322.624 59.44 320.757 59.44C319.264 59.44 317.957 59.7867 316.837 60.48C315.717 61.1733 314.757 62.1067 313.957 63.28L302.997 59.68C303.957 57.7067 305.211 55.92 306.757 54.32C308.357 52.72 310.304 51.44 312.597 50.48C314.891 49.52 317.557 49.04 320.597 49.04C324.757 49.04 328.277 49.8133 331.157 51.36C334.037 52.9067 336.197 55.0667 337.637 57.84C339.077 60.6133 339.797 63.8933 339.797 67.68L339.637 90H327.957ZM316.997 90.96C312.304 90.96 308.651 89.92 306.037 87.84C303.424 85.7067 302.117 82.6667 302.117 78.72C302.117 74.5067 303.477 71.36 306.197 69.28C308.917 67.2 312.731 66.16 317.637 66.16H328.597V74.24H322.277C319.664 74.24 317.771 74.6133 316.597 75.36C315.424 76.0533 314.837 77.0667 314.837 78.4C314.837 79.36 315.264 80.1333 316.117 80.72C317.024 81.2533 318.251 81.52 319.797 81.52C321.344 81.52 322.677 81.2 323.797 80.56C324.971 79.8667 325.877 78.96 326.517 77.84C327.211 76.72 327.557 75.52 327.557 74.24H330.757C330.757 79.52 329.611 83.6267 327.317 86.56C325.077 89.4933 321.637 90.96 316.997 90.96ZM356.6 69.28C356.6 64.96 357.454 61.36 359.16 58.48C360.92 55.6 363.107 53.44 365.72 52C368.387 50.56 371.16 49.84 374.04 49.84V62C371.587 62 369.267 62.2667 367.08 62.8C364.947 63.3333 363.214 64.16 361.88 65.28C360.547 66.3467 359.88 67.7333 359.88 69.44L356.6 69.28ZM347.4 90V50H359.88V90H347.4ZM379.995 90V50H392.475V90H379.995ZM386.235 44.88C384.369 44.88 382.715 44.1867 381.275 42.8C379.889 41.36 379.195 39.7067 379.195 37.84C379.195 35.8667 379.889 34.2133 381.275 32.88C382.715 31.4933 384.369 30.8 386.235 30.8C388.155 30.8 389.809 31.4933 391.195 32.88C392.582 34.2133 393.275 35.8667 393.275 37.84C393.275 39.7067 392.582 41.36 391.195 42.8C389.809 44.1867 388.155 44.88 386.235 44.88ZM401.385 90V50H413.145L413.865 57.36V90H401.385ZM427.145 90V69.52H439.625V90H427.145ZM427.145 69.52C427.145 67.3867 426.905 65.7067 426.425 64.48C425.945 63.2 425.251 62.2667 424.345 61.68C423.491 61.0933 422.425 60.7733 421.145 60.72C418.745 60.6667 416.931 61.3333 415.705 62.72C414.478 64.0533 413.865 66.1067 413.865 68.88H410.105C410.105 64.6667 410.745 61.0933 412.025 58.16C413.305 55.1733 415.038 52.9067 417.225 51.36C419.465 49.8133 422.051 49.04 424.985 49.04C428.185 49.04 430.878 49.7067 433.065 51.04C435.251 52.32 436.878 54.2933 437.945 56.96C439.065 59.6267 439.625 63.04 439.625 67.2V69.52H427.145Z" fill="#123524"/>
<defs>
<clipPath id="clip0_641_11468">
<rect width="125" height="123" fill="white"/>
</clipPath>
</defs>
</svg>
